<svg width="239" height="278" viewBox="0 0 239 278" fill="none" xmlns="http://www.w3.org/2000/svg">
<path d="M102.505 262.161L102.505 262.16C71.7235 234.793 46.2129 212.09 28.3919 190.713C10.5759 169.342 0.5 149.36 0.5 127.441C0.5 91.523 29.1852 63.5 65.725 63.5C86.3705 63.5 106.191 72.9257 119.124 87.6999L119.5 88.1297L119.876 87.6999C132.809 72.9257 152.63 63.5 173.275 63.5C209.815 63.5 238.5 91.523 238.5 127.441C238.5 149.36 228.424 169.342 210.608 190.713C192.787 212.09 167.277 234.793 136.495 262.16L136.495 262.161L119.5 277.33L102.505 262.161Z" fill="url(#paint0_linear_0_1)" stroke="#D098EA"/>
<rect x="15" y="39" width="22" height="194" rx="11" fill="url(#paint1_linear_0_1)"/>
<rect x="13" y="6" width="26" height="228" rx="13" fill="#D9D9D9" fill-opacity="0.28"/>
<rect x="10" y="3" width="32" height="234" rx="16" stroke="white" stroke-opacity="0.73" stroke-width="6"/>
<rect x="31.4737" y="21.0146" width="4.10526" height="197.415" rx="2.05263" fill="white" fill-opacity="0.83"/>
<defs>
<linearGradient id="paint0_linear_0_1" x1="119" y1="30" x2="119.5" y2="278" gradientUnits="userSpaceOnUse">
<stop offset="0.130208" stop-color="#F9B1B1"/>
<stop offset="1" stop-color="#BD00FF" stop-opacity="0.43"/>
</linearGradient>
<linearGradient id="paint1_linear_0_1" x1="26" y1="39" x2="26" y2="233" gradientUnits="userSpaceOnUse">
<stop stop-color="#FF0000"/>
<stop offset="0.5" stop-color="#CB2424"/>
<stop offset="1" stop-color="#9747FF"/>
</linearGradient>
</defs>
</svg>
