<svg width="14" height="18" viewBox="0 0 14 18" fill="none" xmlns="http://www.w3.org/2000/svg">
<path d="M12.6699 8.20023C12.44 7.90022 12.16 7.64022 11.9001 7.38021C11.2302 6.78019 10.4703 6.35018 9.83046 5.72016C8.34073 4.26012 8.01079 1.85005 8.96062 0C8.01079 0.230007 7.18094 0.750022 6.47107 1.32004C3.88155 3.4001 2.86173 7.0702 4.08151 10.2203C4.1215 10.3203 4.16149 10.4203 4.16149 10.5503C4.16149 10.7703 4.01152 10.9703 3.81156 11.0503C3.5816 11.1503 3.34165 11.0903 3.15168 10.9303C3.09169 10.8803 3.0517 10.8303 3.01171 10.7603C1.88191 9.33027 1.70194 7.28021 2.46181 5.64016C0.792111 7.0002 -0.117722 9.30027 0.0122545 11.4703C0.0722435 11.9703 0.132232 12.4704 0.302201 12.9704C0.442176 13.5704 0.712126 14.1704 1.01207 14.7004C2.09187 16.4305 3.96153 17.6705 5.97116 17.9205C8.11077 18.1905 10.4004 17.8005 12.0401 16.3205C13.8697 14.6604 14.5096 12.0003 13.5698 9.72028L13.4398 9.46027C13.2298 9.00026 12.6699 8.20023 12.6699 8.20023ZM9.51052 14.5004C9.23057 14.7404 8.77065 15.0004 8.41072 15.1004C7.29092 15.5004 6.17113 14.9404 5.51125 14.2804C6.70103 14.0004 7.4109 13.1204 7.62086 12.2303C7.79083 11.4303 7.47089 10.7703 7.34091 10.0003C7.22093 9.26026 7.24093 8.63025 7.51088 7.94023C7.70085 8.32024 7.90081 8.70025 8.14077 9.00026C8.91063 10.0003 10.1204 10.4403 10.3804 11.8003C10.4203 11.9403 10.4403 12.0803 10.4403 12.2303C10.4703 13.0504 10.1104 13.9504 9.51052 14.5004Z" fill="white"/>
</svg>
