<svg width="17" height="19" viewBox="0 0 17 19" fill="none" xmlns="http://www.w3.org/2000/svg">
<path d="M9.35725 1.72727C12.6521 1.72727 15.3016 4.43909 15.3016 7.77273C15.3016 10.1909 13.9174 12.255 11.9048 13.2223V17.2727H5.96047V14.6818H5.11127C4.16866 14.6818 3.41288 13.9132 3.41288 12.9545V10.3636H2.13909C1.78243 10.3636 1.57862 9.93182 1.78243 9.66409L3.41288 7.47909C3.57423 4.275 6.15578 1.72727 9.35725 1.72727ZM9.35725 0C5.45944 0 2.2325 2.95364 1.76544 6.82273L0.440699 8.63636H0.415223L0.398239 8.66227C-0.0688179 9.31864 -0.128262 10.1823 0.236892 10.8991C0.542602 11.495 1.08609 11.9095 1.71449 12.0391V12.9545C1.71449 14.5523 2.80146 15.9082 4.26208 16.2968V19H13.6032V14.25C15.7262 12.8077 17 10.4155 17 7.77273C17 3.48045 13.5693 0 9.35725 0ZM12.754 6.76227C12.754 8.09227 11.5991 9.15455 9.84978 10.7695L9.35725 11.2273L8.86471 10.7695C7.11537 9.15455 5.96047 8.09227 5.96047 6.76227C5.96047 5.72591 6.77569 4.87091 7.79473 4.86227H7.82869C8.41464 4.86227 8.97511 5.13 9.35725 5.57909C9.73938 5.13 10.2999 4.86227 10.8858 4.86227C11.9048 4.85364 12.754 5.69136 12.754 6.72773V6.76227Z" fill="white"/>
</svg>
