<svg width="20" height="16" viewBox="0 0 20 16" fill="none" xmlns="http://www.w3.org/2000/svg">
<path d="M8 5C6.9 5 6 5.92 6 7.05C6 7.62 6.22 8.12 6.59 8.5L10 12L13.42 8.5C13.78 8.13 14 7.61 14 7.05C14 5.92 13.1 5 12 5C11.46 5 10.95 5.23 10.59 5.6L10 6.2L9.42 5.61C9.05 5.23 8.54 5 8 5ZM18 0C19.1 0 20 0.9 20 2V14C20 15.1 19.1 16 18 16H2C0.9 16 0 15.1 0 14V2C0 0.9 0.9 0 2 0H18ZM14.7 4.06L18 2H2L5.3 4.06C4.89 4.45 4.55 4.92 4.33 5.45L2 4V14H18V4L15.67 5.45C15.45 4.92 15.11 4.45 14.7 4.06Z" fill="white"/>
</svg>
